<?xml version="1.0" standalone="no"?>
<!DOCTYPE svg PUBLIC "-//W3C//DTD SVG 20010904//EN"
 "http://www.w3.org/TR/2001/REC-SVG-20010904/DTD/svg10.dtd">
<svg version="1.0" xmlns="http://www.w3.org/2000/svg"
 width="512.000000pt" height="512.000000pt" viewBox="0 0 512.000000 512.000000"
 preserveAspectRatio="xMidYMid meet">

<g transform="translate(0.000000,512.000000) scale(0.100000,-0.100000)"
fill="#fff" stroke="none">
<path d="M320 2177 c0 -735 3 -1102 11 -1143 35 -190 193 -348 383 -383 76
-14 3557 -15 3663 -1 79 10 180 52 231 95 l33 27 -163 94 -163 94 -1781 0
-1781 0 -33 22 c-18 13 -43 36 -54 51 -21 28 -21 33 -26 1040 l-5 1012 -150
87 c-82 48 -153 87 -157 88 -5 0 -8 -487 -8 -1083z"/>
<path d="M1456 2554 c-12 -88 -7 -243 9 -273 59 -114 215 -115 273 -1 15 30
22 62 22 100 l0 56 -143 82 c-79 45 -146 82 -149 82 -3 0 -8 -21 -12 -46z"/>
<path d="M1840 1871 c-41 -13 -70 -34 -90 -67 -17 -27 -20 -53 -22 -190 -3
-135 0 -164 14 -191 51 -93 172 -111 247 -36 l35 35 75 -35 c154 -71 281 -98
461 -98 234 0 427 58 622 188 117 79 120 69 -42 162 l-141 81 -67 -34 c-112
-56 -194 -77 -323 -83 -125 -6 -217 5 -302 37 l-52 20 0 64 c0 60 -2 67 -35
101 -19 19 -50 40 -70 45 -41 11 -273 12 -310 1z"/>
</g>
</svg>
