<?xml version="1.0" standalone="no"?>
<!DOCTYPE svg PUBLIC "-//W3C//DTD SVG 20010904//EN"
 "http://www.w3.org/TR/2001/REC-SVG-20010904/DTD/svg10.dtd">
<svg version="1.0" xmlns="http://www.w3.org/2000/svg"
 width="512.000000pt" height="512.000000pt" viewBox="0 0 512.000000 512.000000"
 preserveAspectRatio="xMidYMid meet">

<g transform="translate(0.000000,512.000000) scale(0.100000,-0.100000)"
fill="#fff" stroke="none">
<path d="M2310 4464 c-492 -66 -970 -338 -1261 -719 -122 -159 -275 -439 -286
-524 -20 -146 157 -239 262 -138 20 19 49 68 72 122 190 438 588 780 1051 901
473 123 952 34 1354 -253 110 -78 278 -247 360 -363 114 -160 230 -422 254
-570 l7 -40 -77 0 c-89 0 -131 -15 -169 -59 -31 -37 -42 -85 -32 -138 5 -32
35 -67 198 -230 285 -285 269 -284 549 -5 166 167 197 203 203 235 10 52 -1
101 -32 138 -41 48 -78 59 -201 59 l-108 0 -23 103 c-74 329 -236 636 -467
887 -243 263 -599 472 -947 555 -225 54 -487 68 -707 39z"/>
<path d="M2441 3024 c-253 -68 -410 -331 -346 -579 67 -256 329 -415 580 -350
256 67 415 329 350 578 -67 259 -333 419 -584 351z"/>
<path d="M735 2861 c-24 -11 -111 -91 -222 -202 -152 -155 -182 -190 -188
-222 -10 -50 0 -94 30 -132 39 -53 78 -65 202 -65 l110 0 18 -87 c114 -551
495 -1046 1002 -1302 265 -134 510 -197 803 -208 680 -25 1301 297 1677 868
76 117 183 334 190 388 20 146 -157 239 -262 138 -20 -19 -49 -68 -72 -122
-204 -472 -630 -814 -1153 -926 -90 -20 -135 -23 -310 -23 -174 0 -220 3 -307
22 -510 110 -917 425 -1133 876 -49 103 -104 263 -116 336 l-7 40 77 0 c89 0
131 15 169 59 31 37 42 86 32 138 -6 31 -36 67 -183 216 -98 98 -191 187 -207
197 -48 30 -103 34 -150 11z"/>
</g>
</svg>
