<?xml version="1.0" standalone="no"?>
<!DOCTYPE svg PUBLIC "-//W3C//DTD SVG 20010904//EN"
 "http://www.w3.org/TR/2001/REC-SVG-20010904/DTD/svg10.dtd">
<svg version="1.0" xmlns="http://www.w3.org/2000/svg"
 width="256.000000pt" height="256.000000pt" viewBox="0 0 256.000000 256.000000"
 preserveAspectRatio="xMidYMid meet">

<g transform="translate(0.000000,256.000000) scale(0.100000,-0.100000)"
fill="#fff" stroke="none">
<path d="M581 2434 c-52 -37 -51 -18 -51 -945 0 -955 -3 -911 65 -943 29 -14
131 -16 894 -16 927 0 908 -1 945 51 21 30 21 88 0 118 -37 52 -23 51 -884 51
l-800 0 0 800 c0 861 1 847 -51 884 -13 9 -39 16 -59 16 -20 0 -46 -7 -59 -16z"/>
<path d="M174 2016 c-41 -18 -64 -52 -64 -96 0 -72 55 -110 161 -110 76 0 122
21 143 65 9 18 16 38 16 45 0 30 -34 80 -65 94 -41 20 -148 20 -191 2z"/>
<path d="M913 2014 c-29 -15 -63 -65 -63 -94 0 -7 7 -27 16 -45 30 -65 34 -65
513 -65 l431 0 0 -431 c0 -479 0 -483 65 -513 41 -20 49 -20 90 0 65 31 65 28
65 574 0 546 0 543 -65 574 -29 14 -98 16 -527 16 -427 0 -497 -3 -525 -16z"/>
<path d="M1873 414 c-42 -21 -63 -68 -63 -143 0 -106 38 -161 110 -161 72 0
110 55 110 161 0 76 -21 122 -65 143 -41 20 -52 20 -92 0z"/>
</g>
</svg>
