<?xml version="1.0" encoding="UTF-8" standalone="no"?> <svg width="64" height="64" viewBox="0 0 64 64" fill="none" xmlns="http://www.w3.org/2000/svg">
<path d="M57 32.25C56.6685 32.25 56.3505 32.3817 56.1161 32.6161C55.8817 32.8505 55.75 33.1685 55.75 33.5V57.16C55.75 57.3688 55.7089 57.5756 55.629 57.7685C55.5491 57.9614 55.4319 58.1367 55.2843 58.2843C55.1367 58.4319 54.9614 58.5491 54.7685 58.629C54.5756 58.7089 54.3688 58.75 54.16 58.75H6.84C6.6312 58.75 6.42444 58.7089 6.23153 58.629C6.03863 58.5491 5.86335 58.4319 5.7157 58.2843C5.56806 58.1367 5.45094 57.9614 5.37103 57.7685C5.29113 57.5756 5.25 57.3688 5.25 57.16V9.84C5.25 9.41831 5.41752 9.01388 5.7157 8.7157C6.01388 8.41752 6.41831 8.25 6.84 8.25H30.5C30.8315 8.25 31.1495 8.1183 31.3839 7.88388C31.6183 7.64946 31.75 7.33152 31.75 7C31.75 6.66848 31.6183 6.35054 31.3839 6.11612C31.1495 5.8817 30.8315 5.75 30.5 5.75H6.84C5.75526 5.75 4.71496 6.18091 3.94793 6.94793C3.18091 7.71496 2.75 8.75526 2.75 9.84V57.16C2.75 58.2447 3.18091 59.285 3.94793 60.0521C4.71496 60.8191 5.75526 61.25 6.84 61.25H54.16C54.6971 61.25 55.229 61.1442 55.7252 60.9387C56.2214 60.7331 56.6723 60.4319 57.0521 60.0521C57.4319 59.6723 57.7331 59.2214 57.9387 58.7252C58.1442 58.229 58.25 57.6971 58.25 57.16V33.5C58.25 33.1685 58.1183 32.8505 57.8839 32.6161C57.6495 32.3817 57.3315 32.25 57 32.25V32.25Z" fill="#fff"/>
<path d="M58.9401 5.17005C58.2621 4.49125 57.457 3.95274 56.5707 3.58533C55.6844 3.21792 54.7345 3.02881 53.7751 3.02881C52.8157 3.02881 51.8657 3.21792 50.9794 3.58533C50.0932 3.95274 49.2881 4.49125 48.6101 5.17005L34.5401 19.2401C34.3815 19.3974 34.2676 19.5942 34.2101 19.8101L31.1501 31.4301C31.1031 31.6151 31.0988 31.8084 31.1375 31.9954C31.1761 32.1823 31.2568 32.358 31.3733 32.5093C31.4899 32.6605 31.6393 32.7832 31.8102 32.8683C31.9811 32.9533 32.1692 32.9983 32.3601 33.0001C32.4662 33.0154 32.574 33.0154 32.6801 33.0001L44.3001 29.9001C44.516 29.8425 44.7127 29.7286 44.8701 29.5701L58.9401 15.5001C60.3085 14.1295 61.0772 12.2718 61.0772 10.3351C61.0772 8.39825 60.3085 6.54062 58.9401 5.17005V5.17005ZM57.1701 13.7401L43.3401 27.5701L34.1201 30.0001L36.5401 20.7701L50.3801 6.94005C50.8252 6.49287 51.3542 6.13802 51.9368 5.89589C52.5194 5.65376 53.1441 5.52912 53.7751 5.52912C54.406 5.52912 55.0307 5.65376 55.6133 5.89589C56.1959 6.13802 56.725 6.49287 57.1701 6.94005C57.6176 7.38599 57.9726 7.91587 58.2149 8.49932C58.4571 9.08277 58.5819 9.7083 58.5819 10.3401C58.5819 10.9718 58.4571 11.5973 58.2149 12.1808C57.9726 12.7642 57.6176 13.2941 57.1701 13.7401V13.7401Z" fill="#fff"/>
</svg>
