<svg id="Layer_1" data-name="Layer 1" xmlns="http://www.w3.org/2000/svg" viewBox="0 0 96 96"><defs><style>.cls-1,.cls-2{fill:#1d1e2a;}.cls-2{stroke:#fff;stroke-miterlimit:10;stroke-width:2px;}.cls-3{fill:#40c5e3;}.cls-4{fill:#9acb4d;}</style></defs><rect class="cls-1" width="96" height="96"/><rect class="cls-2" x="6.43" y="9.51" width="83.17" height="77.58" rx="6.95"/><rect class="cls-1" x="3.53" y="24.83" width="8.67" height="46.34"/><rect class="cls-1" x="83.15" y="24.96" width="8.67" height="46.34"/><rect class="cls-1" x="43.66" y="61.97" width="8.67" height="46.34" transform="translate(133.14 37.14) rotate(90)"/><rect class="cls-1" x="43.66" y="-14.1" width="8.67" height="46.34" transform="translate(57.07 -38.93) rotate(90)"/><rect class="cls-3" x="38.5" y="16.07" width="19.37" height="17.47" rx="1.75"/><ellipse class="cls-4" cx="21.51" cy="24.89" rx="9.68" ry="9.12"/><ellipse class="cls-4" cx="48.52" cy="47.18" rx="9.68" ry="9.12"/><ellipse class="cls-4" cx="74.25" cy="24.4" rx="9.68" ry="9.12"/><ellipse class="cls-4" cx="48.18" cy="69.93" rx="9.68" ry="9.12"/><ellipse class="cls-4" cx="76.27" cy="69.93" rx="9.68" ry="9.12"/><rect class="cls-3" x="11.36" y="38.37" width="19.37" height="17.47" rx="1.75"/><rect class="cls-3" x="65.78" y="38.37" width="19.37" height="17.47" rx="1.75"/><rect class="cls-3" x="11.83" y="61.59" width="19.37" height="17.47" rx="1.75"/></svg>